<?xml version="1.0" encoding="utf-8"?>
<!-- Generator: Adobe Illustrator 16.1.0, SVG Export Plug-In . SVG Version: 6.00 Build 0)  -->
<!DOCTYPE svg PUBLIC "-//W3C//DTD SVG 1.1//EN" "http://www.w3.org/Graphics/SVG/1.1/DTD/svg11.dtd">
<svg version="1.1" id="Layer_1" xmlns="http://www.w3.org/2000/svg" xmlns:xlink="http://www.w3.org/1999/xlink" x="0px" y="0px"
	 width="73px" height="100px" viewBox="0 -12 73 100" enable-background="new 0 -12 73 100" xml:space="preserve">
<g>
	<g>
		<path d="M7.61,81.338l-0.98,2.97H5.369l3.222-9.44h1.457l3.222,9.44h-1.303l-1.008-2.97H7.61z M10.72,80.386l-0.938-2.718
			c-0.21-0.616-0.35-1.177-0.49-1.723H9.263c-0.14,0.546-0.28,1.135-0.476,1.709l-0.924,2.731H10.72z"/>
		<path d="M14.567,79.741c0-0.868-0.028-1.569-0.056-2.214h1.093l0.07,1.163h0.028c0.49-0.826,1.303-1.303,2.409-1.303
			c1.653,0,2.886,1.387,2.886,3.433c0,2.437-1.499,3.642-3.096,3.642c-0.896,0-1.681-0.393-2.087-1.065h-0.028v3.685h-1.219V79.741z
			 M15.786,81.549c0,0.182,0.014,0.35,0.056,0.504c0.224,0.854,0.966,1.442,1.849,1.442c1.302,0,2.059-1.064,2.059-2.619
			c0-1.345-0.714-2.508-2.017-2.508c-0.841,0-1.639,0.589-1.863,1.513c-0.042,0.154-0.084,0.336-0.084,0.49V81.549z"/>
		<path d="M22.533,79.741c0-0.868-0.028-1.569-0.056-2.214h1.093l0.07,1.163h0.028c0.49-0.826,1.303-1.303,2.409-1.303
			c1.653,0,2.886,1.387,2.886,3.433c0,2.437-1.499,3.642-3.096,3.642c-0.896,0-1.681-0.393-2.087-1.065h-0.028v3.685h-1.219V79.741z
			 M23.751,81.549c0,0.182,0.014,0.35,0.056,0.504c0.224,0.854,0.966,1.442,1.849,1.442c1.303,0,2.06-1.064,2.06-2.619
			c0-1.345-0.715-2.508-2.017-2.508c-0.841,0-1.639,0.589-1.863,1.513c-0.042,0.154-0.084,0.336-0.084,0.49V81.549z"/>
		<path d="M30.499,74.362h1.233v9.945h-1.233V74.362z"/>
		<path d="M35.176,75.623c0,0.42-0.294,0.756-0.785,0.756c-0.448,0-0.742-0.336-0.742-0.756s0.308-0.771,0.77-0.771
			C34.867,74.853,35.176,75.188,35.176,75.623z M33.803,84.308v-6.78h1.233v6.78H33.803z"/>
		<path d="M41.911,84.069c-0.321,0.154-1.036,0.393-1.946,0.393c-2.046,0-3.376-1.387-3.376-3.46c0-2.088,1.429-3.614,3.642-3.614
			c0.729,0,1.373,0.183,1.709,0.364l-0.28,0.938c-0.294-0.153-0.757-0.322-1.429-0.322c-1.555,0-2.396,1.163-2.396,2.563
			c0,1.568,1.009,2.535,2.354,2.535c0.7,0,1.163-0.168,1.513-0.322L41.911,84.069z"/>
		<path d="M48.113,82.683c0,0.589,0.027,1.163,0.098,1.625h-1.106l-0.098-0.854h-0.042c-0.379,0.532-1.107,1.009-2.073,1.009
			c-1.373,0-2.073-0.967-2.073-1.947c0-1.639,1.457-2.535,4.076-2.521v-0.14c0-0.547-0.154-1.569-1.541-1.555
			c-0.645,0-1.303,0.182-1.779,0.504l-0.279-0.826c0.561-0.351,1.387-0.589,2.24-0.589c2.074,0,2.578,1.415,2.578,2.76V82.683z
			 M46.923,80.848c-1.345-0.027-2.872,0.21-2.872,1.527c0,0.812,0.533,1.176,1.148,1.176c0.896,0,1.471-0.561,1.668-1.135
			c0.041-0.14,0.056-0.279,0.056-0.392V80.848z"/>
		<path d="M50.099,79.363c0-0.715-0.014-1.275-0.056-1.836h1.092l0.07,1.121h0.028c0.336-0.631,1.12-1.261,2.241-1.261
			c0.938,0,2.395,0.561,2.395,2.886v4.034h-1.232v-3.908c0-1.093-0.406-2.003-1.568-2.003c-0.799,0-1.429,0.574-1.652,1.261
			c-0.057,0.153-0.084,0.364-0.084,0.574v4.076h-1.233V79.363z"/>
		<path d="M59.297,75.903v1.624h1.766v0.939h-1.766v3.656c0,0.84,0.238,1.316,0.925,1.316c0.337,0,0.532-0.028,0.715-0.084
			l0.056,0.938c-0.238,0.084-0.616,0.169-1.092,0.169c-0.575,0-1.037-0.196-1.332-0.519c-0.336-0.378-0.476-0.98-0.476-1.779v-3.697
			h-1.051v-0.939h1.051v-1.26L59.297,75.903z"/>
		<path d="M62.278,83.061c0.378,0.225,1.022,0.477,1.639,0.477c0.883,0,1.303-0.434,1.303-1.008c0-0.589-0.351-0.896-1.247-1.233
			c-1.232-0.448-1.807-1.106-1.807-1.919c0-1.093,0.896-1.989,2.34-1.989c0.686,0,1.288,0.183,1.652,0.421l-0.294,0.896
			c-0.267-0.168-0.757-0.406-1.387-0.406c-0.729,0-1.12,0.42-1.12,0.924c0,0.561,0.392,0.812,1.273,1.163
			c1.163,0.435,1.779,1.022,1.779,2.03c0,1.205-0.938,2.046-2.521,2.046c-0.742,0-1.428-0.196-1.904-0.477L62.278,83.061z"/>
	</g>
	<g>
		<g>
			<circle fill-rule="evenodd" clip-rule="evenodd" fill="#333333" cx="35.993" cy="23.125" r="10.125"/>
			<path fill-rule="evenodd" clip-rule="evenodd" fill="#333333" d="M18.696,67.5H53.29c0,0-2.577-23.705-7.594-28.938
				c-3.942-4.11-14.894-3.35-19.406,0.125C20.41,43.213,18.696,67.5,18.696,67.5z"/>
			<rect x="32" y="27.5" fill-rule="evenodd" clip-rule="evenodd" fill="#333333" width="7" height="14"/>
		</g>
	</g>
</g>
</svg>
