<?xml version="1.0" encoding="utf-8"?>
<!-- Generator: Adobe Illustrator 16.1.0, SVG Export Plug-In . SVG Version: 6.00 Build 0)  -->
<!DOCTYPE svg PUBLIC "-//W3C//DTD SVG 1.1//EN" "http://www.w3.org/Graphics/SVG/1.1/DTD/svg11.dtd">
<svg version="1.1" id="Layer_1" xmlns="http://www.w3.org/2000/svg" xmlns:xlink="http://www.w3.org/1999/xlink" x="0px" y="0px"
	 width="73px" height="100px" viewBox="0 -12 73 100" enable-background="new 0 -12 73 100" xml:space="preserve">
<g>
	<g>
		<g>
			<circle fill="#333333" cx="36.049" cy="23.125" r="10.125"/>
		</g>
		<g>
			<path fill="#333333" d="M18.752,67h34.594c0,0-2.578-23.455-7.594-28.688c-3.941-4.111-14.893-3.474-19.406,0
				C20.466,42.838,18.752,67,18.752,67z"/>
		</g>
		<g>
			<rect x="33" y="27" fill="#333333" width="7" height="14"/>
		</g>
		<g>
			<circle fill="#FFFFFF" cx="39.902" cy="16.375" r="3.375"/>
		</g>
		<g>
			<rect x="26" y="19" fill="#FFFFFF" width="21" height="2"/>
		</g>
		<g>
			<path fill="#FFFFFF" d="M36.517,52.658c-1.295,0-3.331-1.012-6.345-8.469c-1.628-4.028-2.798-8.138-2.81-8.179l1.624-0.446
				C31.697,45.129,35,51,36.533,51c0.012,0,0.021,0,0.031,0c1.732,0,4.486-7.814,5.971-14.953l1.652,0.336
				c-0.783,3.766-3.642,16.066-7.531,16.275C36.611,52.662,36.564,52.658,36.517,52.658z"/>
		</g>
		<g>
			<path fill="#FFFFFF" d="M32.24,61.049l-0.54-1.598c1.325-0.45,3.647-1.455,4.237-2.24c0.7-0.932,0.534-3.716,0.265-5.253
				l1.661-0.292c0.086,0.48,0.787,4.745-0.578,6.561C36.192,59.68,32.643,60.913,32.24,61.049z"/>
		</g>
		<g>
			<circle fill="#FFFFFF" cx="30.283" cy="60.25" r="3.375"/>
		</g>
	</g>
	<g>
		<path d="M9.021,81.161c-0.07-1.315-0.154-2.913-0.154-4.076H8.839c-0.336,1.093-0.714,2.283-1.191,3.586l-1.667,4.581H5.057
			l-1.541-4.496c-0.448-1.346-0.812-2.551-1.079-3.671H2.409c-0.028,1.177-0.098,2.745-0.182,4.175l-0.252,4.049H0.812l0.658-9.44
			h1.555l1.611,4.565c0.392,1.162,0.7,2.199,0.952,3.181h0.028c0.252-0.953,0.588-1.99,1.008-3.181l1.681-4.565H9.86l0.588,9.44
			H9.245L9.021,81.161z"/>
		<path d="M17.125,83.684c0,0.588,0.028,1.162,0.098,1.625h-1.107l-0.098-0.854h-0.042c-0.378,0.532-1.107,1.009-2.073,1.009
			c-1.373,0-2.073-0.967-2.073-1.947c0-1.639,1.457-2.535,4.076-2.521v-0.14c0-0.547-0.154-1.569-1.541-1.556
			c-0.644,0-1.302,0.183-1.779,0.505l-0.28-0.826c0.561-0.352,1.387-0.59,2.241-0.59c2.073,0,2.578,1.416,2.578,2.76V83.684z
			 M15.935,81.848c-1.345-0.027-2.872,0.211-2.872,1.527c0,0.812,0.532,1.176,1.148,1.176c0.896,0,1.471-0.561,1.667-1.135
			c0.042-0.141,0.056-0.279,0.056-0.393L15.935,81.848L15.935,81.848z"/>
		<path d="M20.539,76.902v1.625h1.765v0.938h-1.765v3.656c0,0.84,0.238,1.315,0.924,1.315c0.336,0,0.533-0.027,0.714-0.084
			l0.056,0.938c-0.238,0.084-0.616,0.169-1.092,0.169c-0.575,0-1.037-0.195-1.331-0.52c-0.336-0.377-0.476-0.979-0.476-1.778v-3.697
			h-1.051v-0.938h1.051v-1.26L20.539,76.902z"/>
		<path d="M23.688,80.643c0-0.797-0.014-1.483-0.056-2.115h1.079l0.056,1.347h0.042c0.308-0.91,1.064-1.485,1.891-1.485
			c0.126,0,0.224,0.016,0.336,0.028v1.162c-0.126-0.027-0.252-0.027-0.42-0.027c-0.869,0-1.485,0.646-1.653,1.568
			c-0.028,0.168-0.042,0.379-0.042,0.573v3.615h-1.233V80.643z"/>
		<path d="M29.695,76.623c0,0.42-0.294,0.756-0.785,0.756c-0.448,0-0.742-0.336-0.742-0.756s0.308-0.771,0.77-0.771
			C29.386,75.854,29.695,76.188,29.695,76.623z M28.322,85.309v-6.781h1.233v6.781H28.322z"/>
		<path d="M36.43,85.068c-0.322,0.154-1.037,0.394-1.947,0.394c-2.045,0-3.376-1.387-3.376-3.46c0-2.088,1.429-3.613,3.642-3.613
			c0.729,0,1.373,0.182,1.709,0.363l-0.28,0.938c-0.294-0.152-0.756-0.321-1.429-0.321c-1.555,0-2.396,1.163-2.396,2.563
			c0,1.567,1.009,2.534,2.354,2.534c0.7,0,1.163-0.168,1.513-0.321L36.43,85.068z"/>
		<path d="M43.543,83.445c0,0.714,0.014,1.33,0.057,1.861h-1.093l-0.069-1.105h-0.028c-0.308,0.546-1.036,1.261-2.24,1.261
			c-1.063,0-2.34-0.603-2.34-2.97v-3.965h1.231v3.74c0,1.289,0.406,2.172,1.515,2.172c0.825,0,1.399-0.574,1.625-1.135
			c0.069-0.169,0.11-0.394,0.11-0.632v-4.146h1.232V83.445z"/>
		<path d="M45.584,75.361h1.232v9.945h-1.232V75.361z"/>
		<path d="M53.65,83.684c0,0.588,0.026,1.162,0.098,1.625h-1.105l-0.099-0.854h-0.042c-0.379,0.532-1.107,1.009-2.072,1.009
			c-1.373,0-2.074-0.967-2.074-1.947c0-1.639,1.457-2.535,4.076-2.521v-0.14c0-0.547-0.154-1.569-1.541-1.556
			c-0.645,0-1.303,0.183-1.779,0.505l-0.278-0.826c0.562-0.352,1.388-0.59,2.24-0.59c2.073,0,2.577,1.416,2.577,2.76V83.684
			L53.65,83.684z M52.46,81.848c-1.345-0.027-2.872,0.211-2.872,1.527c0,0.812,0.533,1.176,1.148,1.176
			c0.896,0,1.471-0.561,1.668-1.135c0.041-0.141,0.056-0.279,0.056-0.393V81.848z"/>
		<path d="M55.637,80.363c0-0.715-0.015-1.275-0.057-1.836h1.092l0.07,1.121h0.027c0.336-0.631,1.121-1.262,2.242-1.262
			c0.938,0,2.395,0.562,2.395,2.887v4.033h-1.232v-3.908c0-1.092-0.406-2.002-1.568-2.002c-0.799,0-1.429,0.574-1.651,1.261
			c-0.058,0.153-0.084,0.364-0.084,0.573v4.076h-1.233V80.363L55.637,80.363z"/>
		<path d="M64.834,76.902v1.625H66.6v0.938h-1.766v3.656c0,0.84,0.238,1.315,0.925,1.315c0.337,0,0.532-0.027,0.716-0.084
			l0.055,0.938c-0.237,0.084-0.615,0.169-1.092,0.169c-0.574,0-1.037-0.195-1.332-0.52c-0.336-0.377-0.476-0.979-0.476-1.778v-3.697
			h-1.051v-0.938h1.051v-1.26L64.834,76.902z"/>
		<path d="M67.814,84.061c0.379,0.226,1.022,0.478,1.64,0.478c0.883,0,1.303-0.435,1.303-1.009c0-0.588-0.351-0.896-1.247-1.232
			c-1.232-0.447-1.807-1.105-1.807-1.919c0-1.093,0.896-1.989,2.34-1.989c0.686,0,1.288,0.184,1.652,0.422L71.4,79.706
			c-0.267-0.168-0.756-0.406-1.387-0.406c-0.729,0-1.119,0.421-1.119,0.925c0,0.561,0.392,0.812,1.272,1.162
			c1.163,0.436,1.778,1.022,1.778,2.03c0,1.205-0.938,2.046-2.521,2.046c-0.741,0-1.428-0.195-1.903-0.477L67.814,84.061z"/>
	</g>
</g>
</svg>
